# xmcd
#
# Track frame offsets:
#	151
#	14130
#	29905
#	44936
#	60341
#	75058
#	84611
#	99862
#
# Disc length: 1491 seconds
#
# Revision: 1
# Processed by: cddbd v1.5.2PL0 Copyright (c) Steve Scherf et al.
# Submitted via: audiograbber 1.83.01
#
DISCID=5f05d108
DTITLE=Ediie Gosselin - This Dream I Dream
DYEAR=1998
DGENRE=Country
TTITLE0=This Dream I Dream
TTITLE1=One More Broken Heart
TTITLE2=Written On The WInds Of Love
TTITLE3=Someone That I'll Never See Again
TTITLE4=If I Was Elvis
TTITLE5=She's The Key To My Heart
TTITLE6=Lonelly Alone
TTITLE7=It's A Matter Of Love
EXTD=
EXTT0=
EXTT1=
EXTT2=
EXTT3=
EXTT4=
EXTT5=
EXTT6=
EXTT7=
PLAYORDER=
